<svg xmlns="http://www.w3.org/2000/svg" xmlns:xlink="http://www.w3.org/1999/xlink" width="50" zoomAndPan="magnify" viewBox="0 0 37.5 37.499999" height="50" preserveAspectRatio="xMidYMid meet" version="1.0"><defs><clipPath id="804baf04bc"><path d="M 1.238281 2.554688 L 36 2.554688 L 36 34.382812 L 1.238281 34.382812 Z M 1.238281 2.554688 " clip-rule="nonzero"/></clipPath></defs><g clip-path="url(#804baf04bc)"><path fill="#000000" d="M 17.1875 2.554688 C 22.195312 2.554688 26.667969 4.863281 29.589844 8.476562 L 35.757812 4.445312 L 30.410156 9.585938 L 27.769531 12.121094 L 26.222656 13.609375 L 16.6875 22.769531 L 11.894531 17.761719 L 5.929688 17.761719 L 16.476562 29.480469 L 31.03125 10.585938 C 32.371094 12.917969 33.136719 15.621094 33.136719 18.503906 C 33.136719 27.308594 25.996094 34.449219 17.1875 34.449219 C 8.378906 34.449219 1.242188 27.308594 1.242188 18.503906 C 1.242188 9.695312 8.378906 2.554688 17.1875 2.554688 Z M 17.1875 2.554688 " fill-opacity="1" fill-rule="evenodd"/></g></svg>